<svg xmlns="http://www.w3.org/2000/svg" width="1600" height="900" viewBox="0 0 1600 900" role="img" aria-label="Self-Improving Agent launch graphic"><defs><linearGradient id="b" x1="0" y1="0" x2="1" y2="1"><stop stop-color="#041015"/><stop offset=".5" stop-color="#061B20"/><stop offset="1" stop-color="#07150E"/></linearGradient><radialGradient id="h"><stop stop-color="#20E0FF" stop-opacity=".34"/><stop offset="1" stop-color="#36D97D" stop-opacity="0"/></radialGradient><pattern id="g" width="54" height="54" patternUnits="userSpaceOnUse"><path d="M54 0H0V54" fill="none" stroke="#6DEFFF" stroke-opacity=".07"/></pattern><filter id="z"><feGaussianBlur stdDeviation="18" result="x"/><feMerge><feMergeNode in="x"/><feMergeNode in="SourceGraphic"/></feMerge></filter></defs><rect width="1600" height="900" fill="url(#b)"/><rect width="1600" height="900" fill="url(#g)"/><circle cx="1260" cy="400" r="350" fill="url(#h)"/><path d="M0 760C400 650 900 900 1600 650V900H0Z" fill="#07161A"/><g transform="translate(1000 210) scale(1.25)" fill="none" stroke-linecap="round" stroke-linejoin="round" filter="url(#z)"><path d="M30 285L118 206l69 45 86-104 65 39 83-116" stroke="#20E0FF" stroke-width="14"/><path d="M355 70h66v66" stroke="#36D97D" stroke-width="14"/><circle cx="118" cy="206" r="18" fill="#0A1620" stroke="#20E0FF" stroke-width="7"/><circle cx="187" cy="251" r="18" fill="#0A1620" stroke="#36D97D" stroke-width="7"/><circle cx="273" cy="147" r="18" fill="#0A1620" stroke="#20E0FF" stroke-width="7"/></g><text x="112" y="150" font-family="monospace" font-size="29" letter-spacing="5" fill="#20E0FF">LEARN. ADAPT. EVOLVE.</text><text x="112" y="350" font-family="Arial" font-size="105" font-weight="800" fill="#fff" filter="url(#z)">Self-Improving</text><text x="112" y="455" font-family="Arial" font-size="86" font-weight="700" fill="#fff">Agent</text><text x="112" y="535" font-family="Arial" font-size="39" fill="#DDFBFF">Capture corrections and better approaches as durable learnings.</text><text x="112" y="790" font-family="monospace" font-size="25" fill="#fff">Agent Skills  •  GitHub  •  Product Hunt</text><text x="112" y="850" font-family="monospace" font-size="17" fill="#82B5B0">GOODSHYT  ·  LEARNING BECOMES REUSABLE EVIDENCE</text></svg>
